<svg xmlns="http://www.w3.org/2000/svg" xmlns:xlink="http://www.w3.org/1999/xlink" viewBox="0 0 349 349"><defs><style>.cls-1{fill:none;}.cls-2{fill:url(#linear-gradient);}</style><linearGradient id="linear-gradient" x1="-62.89" y1="174.5" x2="410.89" y2="174.5" gradientUnits="userSpaceOnUse"><stop offset="0" stop-color="#82c0cb"/><stop offset="0.21" stop-color="#7ab7c4"/><stop offset="0.56" stop-color="#659db0"/><stop offset="0.99" stop-color="#447591"/></linearGradient></defs><g id="Layer_2" data-name="Layer 2"><g id="Layer_1-2" data-name="Layer 1"><rect class="cls-1" x="128.5" y="128.5" width="92" height="92"/><path class="cls-2" d="M104.5,349a24,24,0,0,0,24-24V268.5h92V325a24,24,0,0,0,48,0V268.5H325a24,24,0,0,0,24-24h0a24,24,0,0,0-24-24H268.5v-92H325a24,24,0,0,0,24-24h0a24,24,0,0,0-24-24H268.5V24a24,24,0,0,0-48,0V80.5h-92V24a24,24,0,0,0-48,0V80.5H24a24,24,0,0,0-24,24H0a24,24,0,0,0,24,24H80.5v92H24a24,24,0,0,0-24,24H0a24,24,0,0,0,24,24H80.5V325A24,24,0,0,0,104.5,349Zm24-220.5h92v92h-92Z"/></g></g></svg>