<svg xmlns="http://www.w3.org/2000/svg" xmlns:xlink="http://www.w3.org/1999/xlink" viewBox="0 0 1850.4 593.28"><defs><style>.cls-1{fill:none;}.cls-2{fill:url(#linear-gradient);}.cls-3{font-size:469px;fill:#666;font-family:AvenirNext-Regular, Avenir Next;letter-spacing:-0.03em;}</style><linearGradient id="linear-gradient" x1="-334.26" y1="794.05" x2="49.83" y2="794.05" gradientTransform="matrix(0.96, -0.27, 0.27, 0.96, 95.52, -526.22)" gradientUnits="userSpaceOnUse"><stop offset="0" stop-color="#42a7b9"/><stop offset="0.25" stop-color="#3f9eb2"/><stop offset="0.66" stop-color="#37849f"/><stop offset="0.99" stop-color="#2f6b8c"/></linearGradient></defs><g id="Layer_2" data-name="Layer 2"><g id="Layer_1-2" data-name="Layer 1"><rect class="cls-1" x="128.5" y="230.46" width="92" height="92"/><path class="cls-2" d="M104.5,451a24,24,0,0,0,24-24v-56.5h92V427a24,24,0,1,0,48,0v-56.5H325a24,24,0,0,0,24-24h0a24,24,0,0,0-24-24H268.5v-92H325a24,24,0,0,0,24-24h0a24,24,0,0,0-24-24H268.5V126a24,24,0,1,0-48,0v56.5h-92V126a24,24,0,1,0-48,0v56.5H24a24,24,0,0,0-24,24H0a24,24,0,0,0,24,24H80.5v92H24a24,24,0,0,0-24,24H0a24,24,0,0,0,24,24H80.5V427A24,24,0,0,0,104.5,451Zm24-220.5h92v92h-92Z"/><text class="cls-3" transform="translate(389.5 400.52)">session</text></g></g></svg>