<svg xmlns="http://www.w3.org/2000/svg" xmlns:xlink="http://www.w3.org/1999/xlink" viewBox="0 0 1953.24 616.01"><defs><style>.cls-1{fill:none;}.cls-2{font-size:469px;fill:#666;font-family:AvenirNext-Regular, Avenir Next;letter-spacing:-0.03em;}.cls-3{clip-path:url(#clip-path);}.cls-4{fill:url(#linear-gradient);}</style><clipPath id="clip-path" transform="translate(102.34 22.74)"><path class="cls-1" d="M333,236.46a16,16,0,0,0,16-16h0a16,16,0,0,0-16-16H247v-87a16,16,0,1,0-32,0v87H134v-87a16,16,0,1,0-32,0v87H16a16,16,0,0,0-16,16H0a16,16,0,0,0,16,16h86v81H16a16,16,0,0,0-16,16H0a16,16,0,0,0,16,16h86v85a16,16,0,1,0,32,0v-85h81v85a16,16,0,1,0,32,0v-85h86a16,16,0,0,0,16-16h0a16,16,0,0,0-16-16H247v-81Zm-118,81H134v-81h81Z"/></clipPath><linearGradient id="linear-gradient" x1="183.16" y1="-326.72" x2="653.35" y2="-326.72" gradientTransform="translate(-219.65 591.88)" gradientUnits="userSpaceOnUse"><stop offset="0" stop-color="#2f6b8c"/><stop offset="0.25" stop-color="#327493"/><stop offset="0.66" stop-color="#3a8ea6"/><stop offset="0.99" stop-color="#42a7b9"/></linearGradient></defs><g id="Layer_2" data-name="Layer 2"><g id="Layer_1-2" data-name="Layer 1"><text class="cls-2" transform="translate(492.34 423.26)">session</text><g class="cls-3"><rect class="cls-4" x="-36.49" y="56.95" width="470.19" height="416.42" transform="translate(592.79 444.66) rotate(155.08)"/></g></g></g></svg>